<?xml version="1.0" standalone="no"?>
<!DOCTYPE svg PUBLIC "-//W3C//DTD SVG 20010904//EN"
 "http://www.w3.org/TR/2001/REC-SVG-20010904/DTD/svg10.dtd">
<svg version="1.0" xmlns="http://www.w3.org/2000/svg"
 width="1024.000000pt" height="1024.000000pt" viewBox="0 0 1024.000000 1024.000000"
 preserveAspectRatio="xMidYMid meet">
<metadata>
Created by potrace 1.16, written by Peter Selinger 2001-2019
</metadata>
<g transform="translate(0.000000,1024.000000) scale(0.100000,-0.100000)"
fill="#000000" stroke="none">
<path d="M0 5120 l0 -5120 5120 0 5120 0 0 5120 0 5120 -5120 0 -5120 0 0
-5120z m2967 3666 c221 -177 363 -313 408 -389 19 -34 25 -56 23 -88 -4 -51
-12 -56 -100 -64 -79 -8 -76 8 -26 -160 85 -284 165 -490 273 -707 123 -246
192 -331 322 -395 73 -36 82 -38 172 -38 84 0 104 3 157 28 37 17 81 49 112
80 27 29 168 229 312 446 144 217 266 399 272 405 5 6 36 49 68 96 32 47 63
90 67 95 5 6 20 26 33 45 13 19 30 41 37 48 7 7 13 17 13 20 0 4 10 18 23 32
12 14 33 41 47 60 13 19 27 37 30 40 3 3 25 30 50 60 68 84 200 219 245 249
72 50 177 63 285 37 164 -40 295 -108 395 -203 22 -21 70 -63 105 -93 36 -30
72 -62 80 -70 8 -8 49 -44 90 -80 41 -36 77 -67 80 -70 3 -3 39 -34 80 -70 41
-36 77 -68 80 -71 29 -32 183 -121 406 -234 176 -89 319 -168 334 -185 3 -3
21 -17 40 -30 57 -39 173 -160 219 -229 96 -141 154 -297 199 -531 20 -105 24
-129 62 -420 84 -653 103 -704 449 -1225 81 -121 160 -242 176 -269 17 -28 42
-70 58 -95 96 -160 156 -316 157 -412 0 -22 -19 -80 -47 -145 l-47 -109 -7
-495 c-7 -504 -21 -746 -53 -912 -21 -108 -32 -156 -58 -237 -96 -307 -244
-463 -523 -553 -84 -27 -134 -32 -182 -19 -51 14 -62 32 -70 114 -4 51 -2 71
16 109 22 50 75 109 131 148 19 13 37 27 40 30 3 3 34 25 70 50 87 59 111 88
164 195 87 177 136 362 177 670 19 137 16 531 -4 630 -20 101 -49 190 -68 213
-8 9 -25 33 -39 52 -13 19 -27 37 -30 40 -3 3 -17 21 -30 40 -13 19 -27 37
-30 40 -3 3 -17 21 -30 40 -13 19 -29 40 -36 47 -7 7 -14 89 -18 228 -6 180
-11 225 -27 262 -22 52 -64 114 -111 163 -63 68 -266 230 -286 230 -44 0 -47
-56 -9 -170 11 -33 116 -200 143 -227 6 -7 22 -29 34 -49 20 -32 22 -45 18
-132 -3 -53 -11 -110 -18 -127 -7 -16 -17 -41 -23 -55 -21 -48 -97 -148 -134
-177 -66 -51 -67 -51 -59 -1 8 54 -8 127 -41 183 -48 82 -91 171 -97 202 -6
27 0 47 37 115 24 46 52 97 62 114 18 30 18 34 1 120 -19 99 -75 221 -127 279
-67 73 -158 34 -217 -93 -49 -104 -41 -342 17 -562 47 -177 101 -338 209 -625
81 -216 82 -219 82 -292 0 -106 -45 -260 -133 -453 -138 -304 -144 -320 -187
-480 -11 -41 -25 -91 -30 -110 -12 -43 -55 -241 -80 -370 -122 -615 -271 -811
-663 -871 -93 -14 -310 -7 -332 11 -25 21 -18 86 14 133 47 69 135 155 241
237 25 19 47 37 50 40 3 3 25 21 50 40 52 41 149 136 184 183 70 93 152 297
226 562 92 332 141 605 126 711 -5 40 -78 225 -99 252 -12 15 -10 195 3 334
l9 97 -110 228 c-61 125 -122 252 -136 281 -23 48 -77 194 -123 332 -70 210
-177 406 -240 440 -27 14 -93 -12 -212 -84 -57 -35 -152 -93 -213 -130 -65
-39 -139 -75 -180 -88 -38 -11 -75 -27 -82 -36 -32 -40 -77 -172 -88 -262 -19
-143 10 -326 75 -485 9 -21 46 -125 86 -238 24 -68 24 -74 24 -445 0 -425 0
-427 78 -687 17 -55 40 -131 51 -170 56 -187 66 -331 31 -470 -19 -75 -108
-274 -134 -300 -31 -32 -190 -51 -311 -38 l-70 8 -22 45 c-41 83 -47 72 146
251 92 86 124 151 129 264 8 159 -66 449 -168 660 -43 90 -165 302 -181 315
-13 11 -106 209 -118 252 -16 58 -11 110 22 218 15 47 27 109 27 139 0 165
-103 552 -207 774 l-46 98 -36 -3 c-31 -3 -40 -11 -79 -68 -38 -57 -115 -205
-167 -323 -26 -60 -74 -194 -101 -282 -13 -44 -29 -94 -34 -111 -13 -41 -13
-173 1 -290 9 -75 9 -101 -2 -127 -18 -46 -80 -134 -134 -192 -25 -27 -58 -66
-73 -85 -15 -19 -30 -37 -33 -40 -30 -23 -97 -188 -134 -330 -35 -136 -38
-153 -76 -355 -35 -189 -60 -307 -86 -404 -58 -220 -90 -281 -172 -322 -92
-47 -105 -62 -140 -168 l-34 -101 -50 -15 c-157 -47 -320 -46 -414 1 -66 33
-75 56 -52 129 21 64 105 202 161 265 13 14 57 64 98 110 41 47 81 92 90 100
18 18 110 118 160 175 48 54 119 149 157 210 83 132 155 388 188 670 21 174
19 285 -6 375 -26 89 -29 193 -6 235 17 33 54 69 107 106 69 47 74 57 90 185
27 214 -8 741 -70 1038 -21 105 -81 182 -210 274 -36 25 -67 49 -70 52 -9 10
-282 172 -360 213 -41 22 -87 48 -102 59 -14 10 -29 18 -32 18 -6 0 -174 99
-191 113 -5 4 -32 22 -60 39 -55 36 -245 220 -291 283 -16 22 -32 42 -35 45
-20 17 -134 200 -173 278 -70 138 -111 245 -157 410 -5 17 -13 47 -18 65 -31
105 -54 187 -62 222 -6 22 -22 58 -36 80 -35 54 -359 374 -390 386 -52 19
-179 -16 -313 -87 -71 -38 -85 -40 -105 -20 -24 24 -28 63 -14 153 18 117 15
135 -38 222 l-46 75 13 70 c22 130 87 237 172 282 64 33 150 44 368 44 282 0
331 9 531 103 140 65 164 75 239 92 41 9 80 18 85 20 28 9 107 3 122 -9z"/>
</g>
</svg>
